# xmcd CD database file
#
# Track frame offsets:
#	150
#	23555
#	34698
#
# Disc length: 852 seconds
#
# Revision: 0
# Processed by: cddbd v1.5.1PL2 Copyright (c) Steve Scherf et al.
# Submitted via: CDex 1.50
#
DISCID=16035203
DTITLE=ガガガＳＰ - 人間なのさ
DYEAR=2006
DGENRE=Japanese Pop
TTITLE0=人間なのさ
TTITLE1=正義の味方
TTITLE2=四季の移り変わりと君と僕
EXTD=YEAR: 2006
EXTT0=
EXTT1=
EXTT2=
PLAYORDER=
